<?xml version="1.0" encoding="UTF-8" standalone="no"?>
<!-- Created with Inkscape (http://www.inkscape.org/) -->

<svg
   xmlns:dc="http://purl.org/dc/elements/1.1/"
   xmlns:cc="http://creativecommons.org/ns#"
   xmlns:rdf="http://www.w3.org/1999/02/22-rdf-syntax-ns#"
   xmlns:svg="http://www.w3.org/2000/svg"
   xmlns="http://www.w3.org/2000/svg"
   xmlns:sodipodi="http://sodipodi.sourceforge.net/DTD/sodipodi-0.dtd"
   xmlns:inkscape="http://www.inkscape.org/namespaces/inkscape"
   width="467.92557"
   height="235.24924"
   id="svg2"
   version="1.1"
   inkscape:version="0.47 r22583"
   sodipodi:docname="Nouveau document 1">
  <defs
     id="defs4">
    <inkscape:path-effect
       effect="skeletal"
       id="path-effect2866"
       is_visible="true"
       pattern="M 0,5 C 0,2.24 2.24,0 5,0 7.76,0 10,2.24 10,5 10,7.76 7.76,10 5,10 2.24,10 0,7.76 0,5 z"
       copytype="single_stretched"
       prop_scale="1"
       scale_y_rel="false"
       spacing="0"
       normal_offset="0"
       tang_offset="0"
       prop_units="false"
       vertical_pattern="false"
       fuse_tolerance="0" />
    <inkscape:path-effect
       effect="skeletal"
       id="path-effect2862"
       is_visible="true"
       pattern="M 0,5 C 0,2.24 2.24,0 5,0 7.76,0 10,2.24 10,5 10,7.76 7.76,10 5,10 2.24,10 0,7.76 0,5 z"
       copytype="single_stretched"
       prop_scale="1"
       scale_y_rel="false"
       spacing="0"
       normal_offset="0"
       tang_offset="0"
       prop_units="false"
       vertical_pattern="false"
       fuse_tolerance="0" />
    <inkscape:path-effect
       effect="skeletal"
       id="path-effect2858"
       is_visible="true"
       pattern="M 0,5 C 0,2.24 2.24,0 5,0 7.76,0 10,2.24 10,5 10,7.76 7.76,10 5,10 2.24,10 0,7.76 0,5 z"
       copytype="single_stretched"
       prop_scale="1"
       scale_y_rel="false"
       spacing="0"
       normal_offset="0"
       tang_offset="0"
       prop_units="false"
       vertical_pattern="false"
       fuse_tolerance="0" />
    <inkscape:path-effect
       effect="skeletal"
       id="path-effect2854"
       is_visible="true"
       pattern="M 0,5 C 0,2.24 2.24,0 5,0 7.76,0 10,2.24 10,5 10,7.76 7.76,10 5,10 2.24,10 0,7.76 0,5 z"
       copytype="single_stretched"
       prop_scale="1"
       scale_y_rel="false"
       spacing="0"
       normal_offset="0"
       tang_offset="0"
       prop_units="false"
       vertical_pattern="false"
       fuse_tolerance="0" />
    <inkscape:path-effect
       effect="skeletal"
       id="path-effect2822"
       is_visible="true"
       pattern="M 0,5 C 0,2.24 2.24,0 5,0 7.76,0 10,2.24 10,5 10,7.76 7.76,10 5,10 2.24,10 0,7.76 0,5 z"
       copytype="single_stretched"
       prop_scale="1"
       scale_y_rel="false"
       spacing="0"
       normal_offset="0"
       tang_offset="0"
       prop_units="false"
       vertical_pattern="false"
       fuse_tolerance="0" />
    <inkscape:path-effect
       effect="skeletal"
       id="path-effect2818"
       is_visible="true"
       pattern="M 0,5 C 0,2.24 2.24,0 5,0 7.76,0 10,2.24 10,5 10,7.76 7.76,10 5,10 2.24,10 0,7.76 0,5 z"
       copytype="single_stretched"
       prop_scale="1"
       scale_y_rel="false"
       spacing="0"
       normal_offset="0"
       tang_offset="0"
       prop_units="false"
       vertical_pattern="false"
       fuse_tolerance="0" />
    <inkscape:perspective
       sodipodi:type="inkscape:persp3d"
       inkscape:vp_x="0 : 526.18109 : 1"
       inkscape:vp_y="0 : 1000 : 0"
       inkscape:vp_z="744.09448 : 526.18109 : 1"
       inkscape:persp3d-origin="372.04724 : 350.78739 : 1"
       id="perspective10" />
  </defs>
  <sodipodi:namedview
     id="base"
     pagecolor="#ffffff"
     bordercolor="#666666"
     borderopacity="1.0"
     inkscape:pageopacity="0.0"
     inkscape:pageshadow="2"
     inkscape:zoom="0.7"
     inkscape:cx="358.49354"
     inkscape:cy="154.1254"
     inkscape:document-units="px"
     inkscape:current-layer="layer1"
     showgrid="false"
     inkscape:window-width="1280"
     inkscape:window-height="757"
     inkscape:window-x="0"
     inkscape:window-y="24"
     inkscape:window-maximized="1" />
  <metadata
     id="metadata7">
    <rdf:RDF>
      <cc:Work
         rdf:about="">
        <dc:format>image/svg+xml</dc:format>
        <dc:type
           rdf:resource="http://purl.org/dc/dcmitype/StillImage" />
        <dc:title></dc:title>
      </cc:Work>
    </rdf:RDF>
  </metadata>
  <g
     inkscape:label="Calque 1"
     inkscape:groupmode="layer"
     id="layer1"
     transform="translate(-69.229882,-475.12283)">
    <path
       style="fill:#000000;fill-rule:evenodd;stroke:none"
       d="m 537.14286,475.21933 c 0.37512,0.50015 -7.63919,7.25588 -22.67662,19.15386 -15.03742,11.89798 -37.09856,28.93817 -64.76482,50.01096 -27.66626,21.0728 -60.93773,46.17819 -98.3383,74.21068 -37.40057,28.03248 -78.92984,58.99208 -123.05633,91.77722 -1e-5,1e-5 -2e-5,1e-5 -3e-5,2e-5 -16.5024,-16.85973 -33.41462,-34.16267 -50.6245,-51.7819 -9.75353,-9.98554 -19.40692,-19.87218 -28.93981,-29.63648 2e-5,0 3e-5,-1e-5 4e-5,-1e-5 54.15226,-22.16639 105.46254,-43.106 151.96877,-61.94212 46.50623,-18.83611 88.20827,-35.56806 123.15953,-49.39456 34.95126,-13.8265 63.15175,-24.74762 82.67125,-32.04185 19.51951,-7.29422 30.3582,-10.96237 30.60082,-10.35582 0.24262,0.60655 -10.13028,5.42304 -29.17884,13.55604 -19.04856,8.133 -46.7726,19.58168 -81.24722,33.52553 -34.47461,13.94386 -75.69979,30.38279 -121.767,48.57605 -46.06721,18.19326 -96.97659,38.14151 -150.83508,59.17942 -1e-5,10e-6 -2e-5,10e-6 -3e-5,2e-5 8.96612,8.73471 18.0348,17.57013 27.19298,26.49632 16.15941,15.75004 32.02597,31.22589 47.52843,46.37102 1e-5,-10e-6 2e-5,-10e-6 3e-5,-2e-5 43.20253,-32.71163 83.9092,-63.42899 120.73996,-91.07 36.83076,-27.64101 69.78601,-52.20566 97.43034,-72.6158 27.64434,-20.41015 49.97767,-36.66581 65.50706,-47.69295 15.52939,-11.02713 24.25425,-16.82578 24.62937,-16.32563 z"
       id="path2816"
       inkscape:path-effect="#path-effect2818"
       inkscape:original-d="M 537.14286,475.21933 228.57143,706.6479 151.42857,629.50504 537.14286,475.21933 z" />
    <path
       style="fill:#000000;fill-rule:evenodd;stroke:none"
       d="m 535.71429,475.21932 c 0.16084,0.61674 -10.9724,4.14833 -31.46707,10.03119 -20.49467,5.88286 -50.35127,14.1168 -87.59348,24.15303 -37.2422,10.03622 -81.87009,21.87469 -131.85943,34.98283 -49.98934,13.10814 -105.33977,27.48606 -163.9813,42.61668 -1e-5,10e-6 -2e-5,10e-6 -3e-5,10e-6 C 108.36625,570.16799 95.6882,552.99137 82.830443,535.56302 78.27229,529.38456 73.738009,523.23748 69.229882,517.12583 197.28384,504.94681 312.73762,494.1298 396.68519,486.58052 c 83.94757,-7.54928 136.38929,-11.83112 139.02441,-11.41206 0.005,0.0508 0.005,0.0509 0.005,0.0509 0,0 10e-6,9e-5 0.005,0.0509 -2.5134,0.89431 -54.72662,6.27293 -137.89082,14.14935 -83.16421,7.87642 -197.27903,18.25037 -324.200898,29.60758 4.360615,5.25533 8.744835,10.539 13.150856,15.84984 12.428619,14.98095 24.673522,29.74782 36.694622,44.27293 2e-5,-1e-5 3e-5,-1e-5 4e-5,-1e-5 57.87304,-15.25574 112.47632,-29.55314 161.87809,-42.36565 49.40178,-12.81252 93.60242,-24.14004 130.62442,-33.47151 37.022,-9.33147 66.86529,-16.66693 87.50445,-21.51155 20.63917,-4.84462 32.07371,-7.19858 32.23455,-6.58184 z"
       id="path2820"
       inkscape:path-effect="#path-effect2822"
       inkscape:original-d="m 535.71429,475.21932 -413.57143,107.85715 -50.714288,-65 464.285718,-42.85715 z" />
    <path
       style="fill:#000000;fill-rule:evenodd;stroke:none"
       d="m 124.28571,580.93361 c 0.66648,0.1786 0.59133,2.97594 -0.21125,7.82719 -0.80258,4.85125 -2.33343,11.75594 -4.50398,20.19065 -2.17054,8.43471 -4.98079,18.39945 -8.26148,29.4157 -3.28068,11.01626 -7.03097,23.08452 -11.00724,35.76769 -1.603425,5.11445 -3.181669,10.13518 -4.71664,15.03372 2e-6,0 4e-6,0 5e-6,0 7.293585,-8.71317 14.183675,-16.86535 20.506625,-24.13127 6.32295,-7.26593 12.07924,-13.64534 17.03452,-18.85233 4.95527,-5.20699 9.10939,-9.24164 12.15474,-11.85885 3.04534,-2.6172 4.98116,-3.81739 5.43328,-3.3925 0.45212,0.42489 -0.62749,2.43343 -3.0925,5.67981 -2.46501,3.24637 -6.31617,7.73017 -11.34061,13.14261 -5.02444,5.41245 -11.22229,11.75347 -18.30741,18.75511 -7.08512,7.00164 -15.05703,14.66415 -23.558885,22.75895 -2e-6,0 -4e-6,10e-6 -5e-6,10e-6 1.14242,-5.09271 2.312523,-10.328 3.51066,-15.66814 2.97122,-13.24284 5.84118,-25.87943 8.58291,-37.33707 2.74173,-11.45764 5.35606,-21.73585 7.74166,-30.30334 2.38559,-8.56748 4.54245,-15.42424 6.28854,-20.08389 1.74609,-4.65964 3.08058,-7.12265 3.74706,-6.94405 z"
       id="path2852"
       inkscape:path-effect="#path-effect2854"
       inkscape:original-d="M 124.28571,580.93361 95,690.21933 150.71429,630.93361" />
    <path
       style="fill:#000000;fill-rule:evenodd;stroke:none"
       d="m 94.843153,690.68443 c -0.599126,-0.93389 17.858327,-9.5921 41.199687,-19.32637 23.34134,-9.73424 42.7713,-16.87656 43.37042,-15.94268 0.59913,0.9339 -17.85833,9.59212 -41.19968,19.32637 -23.34134,9.73425 -42.771301,16.87658 -43.370427,15.94268 z"
       id="path2864" />
  </g>
</svg>
